# xmcd CD database file
#
# Track frame offsets:
#	150
#	31580
#	100153
#	127417
#	163454
#	207914
#	241766
#	297805
#	314670
#	339417
#
# Disc length: 4740 seconds
#
# Revision: 0
# Processed by: cddbd v1.5.2PL0 Copyright (c) Steve Scherf et al.
# Submitted via: CDex 1.79
#
DISCID=9212820a
DTITLE=Jimmy Smith - Seven Classic Albums Vol 3   CD3
DYEAR=1900
DGENRE=Jazz
TTITLE0=Lover Man
TTITLE1=Just Friends
TTITLE2=Blues after All
TTITLE3=Back At the Chicken Shack
TTITLE4=When I Grow Too Old to Dream
TTITLE5=Minor Chant
TTITLE6=Messy Bessie
TTITLE7=Everybody Loves My Baby
TTITLE8=Squeeze Me
TTITLE9=Ain't She Sweet
EXTD=
EXTT0=
EXTT1=
EXTT2=
EXTT3=
EXTT4=
EXTT5=
EXTT6=
EXTT7=
EXTT8=
EXTT9=
PLAYORDER=
